<svg id="svg" version="1.1" xmlns="http://www.w3.org/2000/svg" xmlns:xlink="http://www.w3.org/1999/xlink" width="400" height="400" viewBox="0, 0, 400,400"><g id="svgg"><path id="path0" d="M81.552 1.000 C 81.432 1.120,81.590 1.733,81.904 2.362 C 82.217 2.991,82.373 3.669,82.250 3.868 C 82.127 4.067,82.198 4.289,82.407 4.361 C 82.617 4.433,82.899 5.195,83.034 6.055 C 83.170 6.914,83.392 7.793,83.529 8.008 C 83.665 8.223,83.787 8.486,83.800 8.594 C 83.812 8.701,84.047 9.445,84.322 10.246 C 84.596 11.048,84.710 11.883,84.575 12.102 C 84.440 12.321,84.534 12.500,84.784 12.500 C 85.035 12.500,85.145 12.746,85.030 13.048 C 84.914 13.349,84.931 13.707,85.068 13.844 C 85.204 13.980,85.379 14.564,85.457 15.142 C 85.534 15.719,85.782 16.415,86.009 16.687 C 86.235 16.960,86.328 17.536,86.215 17.967 C 86.103 18.398,86.189 18.750,86.406 18.750 C 86.624 18.750,86.701 19.014,86.577 19.336 C 86.454 19.658,86.543 19.922,86.777 19.922 C 87.010 19.922,87.109 20.273,86.996 20.703 C 86.884 21.132,86.915 21.559,87.064 21.652 C 87.214 21.744,87.381 22.492,87.435 23.312 C 87.490 24.133,87.692 24.860,87.886 24.928 C 88.079 24.995,88.140 25.305,88.020 25.616 C 87.901 25.927,88.018 26.441,88.281 26.758 C 88.544 27.075,88.657 27.600,88.533 27.925 C 88.408 28.250,88.497 28.516,88.730 28.516 C 88.963 28.516,89.062 28.867,88.949 29.297 C 88.837 29.727,88.915 30.078,89.124 30.078 C 89.332 30.078,89.471 30.386,89.433 30.762 C 89.394 31.138,89.397 31.533,89.438 31.641 C 89.480 31.748,89.600 32.624,89.707 33.588 C 89.813 34.552,90.061 35.440,90.256 35.561 C 90.452 35.682,90.693 36.563,90.792 37.519 C 90.890 38.475,91.004 39.258,91.044 39.258 C 91.084 39.258,91.164 39.697,91.222 40.234 C 91.280 40.771,91.440 41.650,91.577 42.188 C 91.714 42.725,91.897 43.938,91.984 44.885 C 92.070 45.831,92.328 46.721,92.557 46.862 C 92.785 47.003,92.964 47.547,92.953 48.071 C 92.943 48.595,93.042 49.551,93.174 50.195 C 93.305 50.840,93.404 51.754,93.392 52.227 C 93.381 52.699,93.521 53.179,93.704 53.292 C 93.886 53.405,93.951 53.941,93.847 54.483 C 93.744 55.025,93.825 55.469,94.027 55.469 C 94.230 55.469,94.319 55.996,94.224 56.641 C 94.112 57.401,94.221 57.813,94.532 57.813 C 94.833 57.813,94.944 58.174,94.829 58.777 C 94.727 59.308,94.794 59.650,94.976 59.537 C 95.273 59.353,95.339 60.183,95.312 63.744 C 95.308 64.321,95.458 64.888,95.646 65.004 C 95.835 65.120,95.904 65.659,95.801 66.202 C 95.685 66.804,95.791 67.187,96.071 67.188 C 96.324 67.188,96.425 67.358,96.297 67.565 C 95.940 68.143,96.533 71.891,96.942 71.638 C 97.140 71.516,97.278 72.091,97.251 72.915 C 97.223 73.740,97.327 75.117,97.483 75.977 C 97.638 76.836,97.736 78.198,97.701 79.004 C 97.666 79.810,97.773 80.470,97.940 80.472 C 98.106 80.474,98.280 81.559,98.325 82.882 C 98.371 84.206,98.614 85.414,98.864 85.569 C 99.123 85.729,99.243 86.375,99.142 87.066 C 99.044 87.734,99.102 88.281,99.272 88.281 C 99.571 88.281,99.694 90.207,99.616 93.652 C 99.595 94.565,99.744 95.313,99.948 95.313 C 100.151 95.313,100.241 95.620,100.147 95.996 C 100.052 96.372,100.252 98.525,100.591 100.781 C 100.929 103.037,101.281 105.498,101.373 106.250 C 101.466 107.002,101.640 108.408,101.761 109.375 C 101.882 110.342,101.987 112.100,101.994 113.281 C 102.001 114.463,102.279 117.539,102.612 120.117 C 102.944 122.695,103.277 125.420,103.351 126.172 C 103.425 126.924,103.590 128.594,103.717 129.883 C 103.845 131.172,103.945 133.948,103.938 136.052 C 103.932 138.156,104.054 139.801,104.210 139.707 C 104.365 139.614,104.545 141.931,104.610 144.856 C 104.677 147.869,104.898 150.279,105.121 150.417 C 105.337 150.551,105.508 151.786,105.500 153.162 C 105.492 154.538,105.572 157.334,105.677 159.375 C 106.227 170.022,106.339 178.513,106.349 210.156 C 106.358 240.678,106.260 248.234,105.694 260.547 C 105.620 262.158,105.548 264.839,105.534 266.504 C 105.521 268.169,105.360 269.531,105.177 269.531 C 104.899 269.531,103.957 281.244,103.984 284.375 C 104.005 286.866,103.477 292.349,102.749 297.190 C 102.481 298.975,102.343 300.865,102.444 301.389 C 102.544 301.914,102.493 302.344,102.331 302.344 C 102.168 302.344,101.968 303.047,101.886 303.906 C 101.804 304.766,101.885 305.469,102.067 305.469 C 102.248 305.469,102.284 305.822,102.148 306.253 C 102.011 306.684,101.816 307.959,101.716 309.085 C 101.480 311.729,101.378 312.475,100.421 318.538 C 99.982 321.321,99.622 324.134,99.621 324.788 C 99.617 328.915,99.563 329.705,99.302 329.543 C 99.141 329.444,99.077 330.074,99.160 330.944 C 99.251 331.902,99.161 332.432,98.932 332.290 C 98.601 332.086,97.681 337.322,97.741 339.063 C 97.752 339.385,97.630 340.352,97.470 341.211 C 97.310 342.070,97.203 343.345,97.234 344.043 C 97.265 344.741,97.125 345.312,96.923 345.312 C 96.485 345.312,95.534 350.582,95.872 351.129 C 96.001 351.338,95.935 351.614,95.726 351.744 C 95.359 351.971,95.317 352.379,95.334 355.598 C 95.338 356.422,95.184 356.998,94.993 356.880 C 94.801 356.761,94.727 357.098,94.829 357.629 C 94.944 358.233,94.833 358.594,94.531 358.594 C 94.227 358.594,94.119 358.957,94.238 359.580 C 94.342 360.122,94.277 360.658,94.094 360.771 C 93.911 360.884,93.767 361.363,93.773 361.836 C 93.779 362.309,93.681 363.223,93.555 363.867 C 93.428 364.512,93.267 365.391,93.197 365.820 C 93.126 366.250,93.027 366.689,92.975 366.797 C 92.924 366.904,92.914 367.388,92.953 367.871 C 92.993 368.354,92.816 368.750,92.561 368.750 C 92.278 368.750,92.168 369.127,92.281 369.715 C 92.382 370.245,92.311 370.584,92.123 370.468 C 91.934 370.351,91.800 370.752,91.825 371.359 C 91.850 371.965,91.756 372.900,91.617 373.438 C 91.175 375.145,90.981 376.341,90.996 377.268 C 91.004 377.763,90.861 378.076,90.679 377.963 C 90.496 377.850,90.430 378.192,90.532 378.723 C 90.638 379.278,90.533 379.687,90.284 379.688 C 90.047 379.688,89.867 380.083,89.885 380.566 C 89.904 381.050,89.797 381.885,89.649 382.422 C 89.501 382.959,89.385 383.706,89.392 384.082 C 89.399 384.458,89.256 384.766,89.075 384.766 C 88.893 384.766,88.837 385.117,88.949 385.547 C 89.062 385.977,88.974 386.328,88.754 386.328 C 88.534 386.328,88.446 386.680,88.559 387.109 C 88.681 387.579,88.571 387.891,88.281 387.891 C 87.996 387.891,87.881 388.201,87.999 388.653 C 88.109 389.073,88.047 389.468,87.862 389.532 C 87.676 389.596,87.481 390.233,87.427 390.948 C 87.373 391.662,87.185 392.336,87.008 392.445 C 86.831 392.555,86.794 392.981,86.924 393.392 C 87.055 393.804,86.980 394.141,86.757 394.141 C 86.535 394.141,86.442 394.374,86.552 394.659 C 86.661 394.944,86.537 395.691,86.276 396.319 C 85.608 397.924,85.511 399.220,86.059 399.214 C 86.314 399.211,88.457 398.853,90.820 398.419 C 93.184 397.985,96.159 397.451,97.432 397.232 C 98.706 397.014,99.905 396.739,100.097 396.620 C 100.289 396.501,101.406 396.416,102.581 396.430 C 104.059 396.447,104.633 396.321,104.446 396.019 C 104.281 395.752,104.353 395.692,104.632 395.864 C 104.883 396.019,106.402 395.947,108.008 395.703 C 111.177 395.223,116.014 394.662,119.727 394.344 C 121.016 394.234,122.949 394.050,124.023 393.936 C 125.098 393.821,126.855 393.639,127.930 393.531 C 129.004 393.423,130.498 393.252,131.250 393.150 C 132.002 393.048,135.078 392.770,138.086 392.532 C 143.698 392.088,145.245 391.956,148.633 391.631 C 149.707 391.527,151.816 391.340,153.320 391.215 C 154.824 391.089,157.373 390.824,158.984 390.626 C 160.596 390.429,162.881 390.174,164.063 390.060 C 165.244 389.946,167.090 389.768,168.164 389.664 C 169.238 389.560,171.260 389.377,172.656 389.257 C 174.053 389.138,175.723 388.961,176.367 388.864 C 177.012 388.767,179.736 388.349,182.422 387.935 C 185.107 387.521,187.568 387.190,187.891 387.199 C 188.409 387.213,190.927 386.821,191.992 386.561 C 193.913 386.092,196.997 385.519,198.438 385.364 C 201.172 385.070,202.843 384.763,203.906 384.362 C 204.443 384.160,205.498 383.948,206.250 383.891 C 207.002 383.835,207.718 383.654,207.840 383.488 C 207.963 383.323,208.996 383.096,210.136 382.985 C 211.276 382.873,212.820 382.526,213.568 382.214 C 214.315 381.901,215.084 381.743,215.276 381.862 C 215.468 381.980,215.625 381.871,215.625 381.618 C 215.625 381.351,215.952 381.244,216.406 381.363 C 216.836 381.476,217.188 381.389,217.188 381.172 C 217.188 380.954,217.434 380.870,217.735 380.986 C 218.037 381.102,218.395 381.084,218.531 380.948 C 218.668 380.811,219.253 380.636,219.832 380.559 C 220.410 380.481,221.001 380.228,221.145 379.996 C 221.288 379.764,221.687 379.682,222.031 379.814 C 222.375 379.946,222.656 379.865,222.656 379.633 C 222.656 379.402,222.920 379.314,223.242 379.438 C 223.564 379.562,223.828 379.474,223.828 379.243 C 223.828 379.012,224.092 378.924,224.414 379.048 C 224.736 379.171,225.000 379.083,225.000 378.852 C 225.000 378.621,225.264 378.533,225.586 378.657 C 225.908 378.781,226.172 378.701,226.172 378.480 C 226.172 378.260,226.348 378.188,226.563 378.320 C 226.777 378.453,226.953 378.381,226.953 378.160 C 226.953 377.940,227.217 377.860,227.539 377.984 C 227.861 378.107,228.125 378.002,228.125 377.750 C 228.125 377.460,228.430 377.388,228.955 377.555 C 229.570 377.750,229.705 377.689,229.477 377.319 C 229.258 376.965,229.357 376.892,229.819 377.070 C 230.177 377.207,230.469 377.130,230.469 376.899 C 230.469 376.668,230.732 376.580,231.055 376.704 C 231.377 376.827,231.641 376.748,231.641 376.527 C 231.641 376.306,231.816 376.234,232.031 376.367 C 232.246 376.500,232.422 376.428,232.422 376.207 C 232.422 375.986,232.686 375.907,233.008 376.031 C 233.330 376.154,233.594 376.042,233.594 375.781 C 233.594 375.513,233.857 375.408,234.200 375.540 C 234.548 375.673,234.704 375.608,234.568 375.386 C 234.344 375.024,235.128 374.828,236.230 374.971 C 236.499 375.006,236.719 374.840,236.719 374.603 C 236.719 374.367,236.895 374.281,237.109 374.414 C 237.324 374.547,237.500 374.459,237.500 374.219 C 237.500 373.979,237.676 373.891,237.891 374.023 C 238.105 374.156,238.281 374.068,238.281 373.828 C 238.281 373.588,238.457 373.500,238.672 373.633 C 238.887 373.766,239.063 373.669,239.063 373.419 C 239.063 373.168,239.326 373.064,239.648 373.188 C 239.971 373.312,240.234 373.232,240.234 373.012 C 240.234 372.791,240.410 372.719,240.625 372.852 C 240.840 372.984,241.016 372.896,241.016 372.656 C 241.016 372.416,241.191 372.328,241.406 372.461 C 241.621 372.594,241.797 372.506,241.797 372.266 C 241.797 372.025,241.958 371.929,242.156 372.051 C 242.354 372.173,242.780 372.008,243.105 371.683 C 243.429 371.359,243.970 371.094,244.308 371.094 C 244.646 371.094,244.922 370.908,244.922 370.680 C 244.922 370.453,245.082 370.365,245.278 370.486 C 245.688 370.740,248.041 369.493,248.044 369.020 C 248.046 368.846,248.223 368.813,248.438 368.945 C 248.652 369.078,248.828 368.971,248.828 368.708 C 248.828 368.445,248.938 368.339,249.073 368.474 C 249.420 368.821,251.563 367.649,251.563 367.112 C 251.563 366.867,251.677 366.781,251.817 366.921 C 251.957 367.061,252.321 366.870,252.627 366.498 C 252.950 366.105,253.054 366.066,252.876 366.406 C 252.506 367.112,254.573 365.857,255.400 364.873 C 255.759 364.447,255.827 364.431,255.622 364.823 C 255.254 365.529,257.736 363.855,258.725 362.730 C 259.120 362.281,259.327 362.178,259.185 362.500 C 258.982 362.961,259.037 362.952,259.444 362.461 C 259.728 362.118,260.091 361.805,260.250 361.767 C 261.247 361.527,261.681 361.193,261.461 360.836 C 261.321 360.611,261.389 360.539,261.612 360.676 C 261.834 360.814,262.633 360.445,263.386 359.858 C 264.139 359.270,265.117 358.537,265.560 358.230 C 266.002 357.922,266.259 357.499,266.130 357.290 C 266.001 357.081,266.084 357.028,266.316 357.171 C 266.548 357.314,267.116 356.900,267.578 356.250 C 268.041 355.600,268.553 355.152,268.716 355.253 C 269.200 355.551,270.740 354.281,270.454 353.819 C 270.298 353.567,270.373 353.507,270.638 353.671 C 271.231 354.037,281.046 344.368,280.681 343.778 C 280.526 343.527,280.632 343.386,280.928 343.447 C 281.213 343.506,281.397 343.322,281.338 343.037 C 281.279 342.753,281.391 342.619,281.587 342.740 C 282.024 343.010,282.834 342.085,282.994 341.133 C 283.059 340.746,283.298 340.470,283.526 340.520 C 283.755 340.570,284.337 340.055,284.821 339.375 C 285.305 338.696,285.463 338.287,285.173 338.466 C 284.818 338.685,284.736 338.644,284.924 338.342 C 285.077 338.094,285.412 337.887,285.668 337.882 C 286.151 337.873,289.206 333.858,289.081 333.395 C 289.042 333.250,289.330 332.871,289.720 332.553 C 290.110 332.234,290.166 332.103,289.844 332.261 C 289.521 332.420,289.751 332.081,290.354 331.507 C 290.972 330.920,291.329 330.269,291.173 330.016 C 291.010 329.753,291.066 329.673,291.308 329.822 C 291.790 330.120,293.475 327.457,293.144 326.920 C 293.020 326.721,293.193 326.452,293.528 326.323 C 293.862 326.195,294.039 325.933,293.920 325.740 C 293.801 325.548,293.876 325.391,294.086 325.391 C 294.498 325.391,295.951 323.213,296.161 322.281 C 296.231 321.967,296.601 321.358,296.982 320.927 C 297.363 320.497,297.585 319.910,297.475 319.622 C 297.365 319.335,297.436 319.200,297.633 319.321 C 297.951 319.518,298.689 318.003,298.461 317.622 C 298.412 317.538,298.539 317.363,298.745 317.231 C 299.376 316.828,301.994 311.320,301.746 310.919 C 301.618 310.711,301.787 310.436,302.121 310.308 C 302.456 310.179,302.625 309.905,302.498 309.699 C 302.370 309.492,302.563 309.105,302.927 308.839 C 303.291 308.573,303.616 307.882,303.650 307.303 C 303.683 306.724,303.853 306.250,304.027 306.250 C 304.201 306.250,304.234 306.074,304.102 305.859 C 303.969 305.645,304.046 305.469,304.274 305.469 C 304.501 305.469,304.688 305.029,304.688 304.492 C 304.688 303.955,304.874 303.516,305.101 303.516 C 305.329 303.516,305.418 303.358,305.299 303.166 C 305.180 302.974,305.365 302.708,305.711 302.575 C 306.108 302.423,306.264 302.050,306.136 301.558 C 306.024 301.131,306.086 300.781,306.274 300.781 C 306.462 300.781,306.515 300.518,306.391 300.195 C 306.268 299.873,306.340 299.609,306.551 299.609 C 307.003 299.609,307.823 297.772,307.915 296.553 C 307.950 296.085,308.136 295.703,308.328 295.703 C 308.520 295.703,308.576 295.439,308.452 295.117 C 308.329 294.795,308.417 294.531,308.648 294.531 C 308.879 294.531,308.967 294.268,308.843 293.945 C 308.719 293.623,308.799 293.359,309.020 293.359 C 309.240 293.359,309.312 293.182,309.178 292.966 C 309.044 292.749,309.199 292.308,309.522 291.985 C 309.845 291.661,310.043 291.051,309.962 290.629 C 309.880 290.206,309.981 289.756,310.187 289.630 C 310.392 289.503,310.458 289.236,310.335 289.036 C 310.211 288.836,310.291 288.672,310.512 288.672 C 310.732 288.672,310.812 288.408,310.688 288.086 C 310.564 287.764,310.652 287.500,310.883 287.500 C 311.115 287.500,311.196 287.219,311.064 286.875 C 310.932 286.531,311.063 286.102,311.355 285.921 C 311.647 285.740,311.914 285.187,311.948 284.691 C 311.983 284.195,312.186 283.350,312.399 282.813 C 312.613 282.275,312.704 281.616,312.602 281.348 C 312.500 281.079,312.567 280.859,312.751 280.858 C 312.935 280.857,313.119 280.214,313.160 279.430 C 313.201 278.646,313.446 277.874,313.705 277.714 C 313.964 277.554,314.075 277.158,313.951 276.835 C 313.827 276.512,313.836 276.138,313.971 276.003 C 314.265 275.708,314.511 274.666,314.506 273.730 C 314.503 273.354,314.650 273.047,314.831 273.047 C 315.013 273.047,315.069 272.695,314.957 272.266 C 314.845 271.836,314.932 271.484,315.152 271.484 C 315.372 271.484,315.455 271.115,315.337 270.663 C 315.219 270.211,315.311 269.726,315.541 269.583 C 315.771 269.441,316.050 268.624,316.162 267.768 C 316.273 266.912,316.474 265.771,316.608 265.234 C 316.742 264.697,316.851 263.774,316.850 263.184 C 316.850 262.593,317.008 262.109,317.201 262.109 C 317.395 262.109,317.464 261.875,317.354 261.589 C 317.244 261.304,317.358 260.205,317.606 259.148 C 317.854 258.091,318.110 256.875,318.174 256.445 C 318.239 256.016,318.417 255.049,318.570 254.297 C 318.724 253.545,318.825 252.458,318.795 251.881 C 318.766 251.304,318.912 250.728,319.119 250.599 C 319.327 250.471,319.400 250.113,319.282 249.804 C 319.163 249.495,319.273 247.963,319.526 246.398 C 320.495 240.400,320.611 239.415,320.890 234.766 C 321.013 232.725,321.318 228.594,321.569 225.586 C 322.054 219.756,322.261 189.392,321.818 189.061 C 321.673 188.953,321.440 186.580,321.301 183.788 C 320.928 176.329,320.617 172.504,320.140 169.531 C 320.054 168.994,319.777 167.275,319.525 165.711 C 319.273 164.147,319.163 162.614,319.282 162.305 C 319.400 161.997,319.335 161.643,319.136 161.521 C 318.937 161.398,318.788 160.733,318.804 160.043 C 318.838 158.584,318.579 157.016,317.738 153.576 C 317.405 152.213,317.225 150.856,317.338 150.561 C 317.451 150.266,317.379 149.923,317.176 149.798 C 316.974 149.673,316.823 149.184,316.840 148.711 C 316.857 148.238,316.757 147.412,316.618 146.875 C 316.479 146.338,316.273 145.198,316.162 144.342 C 316.050 143.486,315.776 142.565,315.553 142.296 C 315.330 142.027,315.245 141.552,315.364 141.241 C 315.483 140.930,315.427 140.620,315.238 140.553 C 315.050 140.485,314.786 139.463,314.653 138.281 C 314.520 137.100,314.258 135.980,314.072 135.792 C 313.885 135.605,313.833 135.192,313.955 134.874 C 314.077 134.556,313.940 134.150,313.651 133.971 C 313.362 133.793,313.125 133.019,313.125 132.253 C 313.125 131.486,313.014 130.859,312.878 130.859 C 312.742 130.859,312.611 130.640,312.588 130.371 C 312.547 129.894,312.243 128.514,312.094 128.125 C 312.053 128.018,312.054 127.603,312.096 127.203 C 312.138 126.804,311.999 126.584,311.787 126.716 C 311.560 126.856,311.485 126.632,311.605 126.172 C 311.728 125.705,311.618 125.391,311.332 125.391 C 311.069 125.391,310.953 125.133,311.074 124.817 C 311.195 124.502,311.123 124.138,310.914 124.009 C 310.705 123.880,310.628 123.623,310.742 123.438 C 310.857 123.252,310.779 122.995,310.570 122.866 C 310.361 122.737,310.289 122.373,310.410 122.058 C 310.531 121.742,310.474 121.484,310.283 121.484 C 310.092 121.484,309.897 121.011,309.849 120.432 C 309.801 119.853,309.570 119.261,309.335 119.116 C 309.100 118.971,308.881 118.390,308.849 117.825 C 308.816 117.260,308.638 116.797,308.454 116.797 C 308.270 116.797,308.221 116.533,308.344 116.211 C 308.468 115.889,308.355 115.622,308.093 115.619 C 307.788 115.615,307.823 115.483,308.192 115.249 C 308.688 114.936,308.678 114.851,308.119 114.637 C 307.729 114.487,307.564 114.146,307.705 113.778 C 307.840 113.428,307.646 112.954,307.251 112.665 C 306.872 112.388,306.678 111.974,306.820 111.745 C 306.961 111.516,306.872 111.328,306.622 111.328 C 306.371 111.328,306.268 111.064,306.391 110.742 C 306.515 110.420,306.435 110.156,306.215 110.156 C 305.994 110.156,305.928 109.970,306.069 109.742 C 306.432 109.155,305.462 106.989,304.971 107.293 C 304.715 107.451,304.647 107.230,304.787 106.695 C 304.911 106.219,304.775 105.612,304.476 105.313 C 304.183 105.020,304.052 104.672,304.185 104.539 C 304.318 104.406,304.212 104.297,303.948 104.297 C 303.685 104.297,303.566 104.141,303.683 103.951 C 303.976 103.477,303.138 101.172,302.673 101.172 C 302.467 101.172,302.406 100.996,302.539 100.781 C 302.672 100.566,302.594 100.391,302.367 100.391 C 302.139 100.391,301.974 100.259,301.999 100.098 C 302.164 99.052,301.849 97.943,301.204 97.298 C 300.793 96.886,300.558 96.447,300.684 96.322 C 300.809 96.196,300.712 96.094,300.468 96.094 C 300.215 96.094,300.132 95.815,300.274 95.444 C 300.441 95.010,300.373 94.887,300.071 95.073 C 299.784 95.251,299.697 95.149,299.833 94.795 C 300.088 94.130,298.689 91.676,298.285 92.079 C 298.131 92.233,298.133 92.028,298.288 91.623 C 298.483 91.115,298.431 90.974,298.118 91.167 C 297.813 91.356,297.749 91.228,297.922 90.777 C 298.111 90.286,298.041 90.192,297.662 90.426 C 297.330 90.631,297.239 90.594,297.407 90.322 C 297.733 89.795,296.476 87.068,296.034 87.342 C 295.857 87.451,295.828 87.239,295.969 86.870 C 296.143 86.419,296.079 86.291,295.774 86.480 C 295.469 86.668,295.405 86.541,295.579 86.089 C 295.767 85.598,295.697 85.504,295.319 85.738 C 294.953 85.964,294.894 85.909,295.117 85.548 C 295.316 85.225,295.159 84.838,294.689 84.494 C 294.280 84.195,293.989 83.870,294.043 83.772 C 294.315 83.275,294.085 82.801,293.690 83.045 C 293.421 83.211,293.344 83.153,293.500 82.900 C 293.769 82.466,291.601 78.424,290.974 78.190 C 290.782 78.118,290.625 77.874,290.625 77.647 C 290.625 77.420,290.317 76.982,289.941 76.674 C 289.565 76.366,289.476 76.224,289.742 76.359 C 290.060 76.519,290.146 76.396,289.994 75.999 C 289.866 75.667,289.605 75.492,289.412 75.611 C 289.220 75.730,289.062 75.496,289.062 75.092 C 289.062 74.252,286.671 70.731,285.751 70.216 C 285.415 70.028,285.244 69.705,285.371 69.500 C 285.566 69.184,283.936 66.641,282.137 64.453 C 281.872 64.131,281.375 63.516,281.033 63.086 C 280.691 62.656,280.539 62.552,280.695 62.853 C 280.884 63.217,280.826 63.307,280.523 63.119 C 280.271 62.964,280.145 62.709,280.241 62.552 C 280.503 62.129,279.792 61.135,279.213 61.115 C 278.937 61.105,278.762 60.864,278.825 60.578 C 278.962 59.952,275.891 56.274,272.112 52.539 C 270.590 51.035,269.694 50.059,270.122 50.370 C 270.549 50.681,270.020 50.010,268.945 48.880 C 266.084 45.868,258.958 39.631,258.521 39.756 C 258.314 39.815,258.247 39.698,258.371 39.497 C 258.648 39.050,253.967 35.463,253.490 35.758 C 253.303 35.873,252.927 35.609,252.653 35.171 C 252.380 34.733,251.924 34.375,251.641 34.375 C 251.358 34.375,251.214 34.231,251.323 34.056 C 251.502 33.765,249.818 32.542,249.121 32.457 C 248.960 32.438,248.470 32.064,248.033 31.626 C 247.595 31.189,247.024 30.953,246.763 31.103 C 246.502 31.253,246.420 31.231,246.580 31.055 C 246.982 30.611,245.416 29.577,244.861 29.921 C 244.582 30.093,244.517 30.027,244.689 29.748 C 244.843 29.500,244.782 29.275,244.554 29.248 C 244.327 29.221,243.965 29.155,243.750 29.102 C 243.535 29.048,243.173 28.982,242.946 28.955 C 242.718 28.928,242.641 28.730,242.773 28.516 C 242.991 28.164,242.478 27.956,241.699 28.079 C 241.538 28.104,241.406 27.949,241.406 27.734 C 241.406 27.520,241.274 27.365,241.113 27.390 C 240.369 27.508,239.817 27.312,240.011 26.998 C 240.225 26.653,237.955 25.513,237.402 25.688 C 237.241 25.739,237.109 25.595,237.109 25.368 C 237.109 25.140,236.934 25.063,236.719 25.195 C 236.504 25.328,236.328 25.251,236.328 25.023 C 236.328 24.796,235.977 24.609,235.547 24.609 C 235.117 24.609,234.766 24.454,234.766 24.264 C 234.766 23.959,233.728 23.468,232.617 23.248 C 231.145 22.957,230.078 22.517,230.078 22.200 C 230.078 21.996,229.902 21.938,229.688 22.070 C 229.473 22.203,229.297 22.107,229.297 21.856 C 229.297 21.606,229.033 21.502,228.711 21.626 C 228.389 21.749,228.125 21.670,228.125 21.449 C 228.125 21.228,227.949 21.156,227.734 21.289 C 227.520 21.422,227.344 21.350,227.344 21.129 C 227.344 20.908,227.080 20.829,226.758 20.952 C 226.435 21.076,226.172 20.964,226.172 20.703 C 226.172 20.442,225.928 20.322,225.631 20.437 C 225.333 20.551,224.718 20.384,224.264 20.066 C 223.809 19.747,223.438 19.606,223.438 19.752 C 223.438 19.898,223.202 19.822,222.913 19.582 C 222.625 19.343,222.273 19.263,222.132 19.404 C 221.991 19.546,221.875 19.462,221.875 19.218 C 221.875 18.974,221.611 18.876,221.289 18.999 C 220.967 19.123,220.703 19.035,220.703 18.804 C 220.703 18.573,220.453 18.480,220.148 18.597 C 219.842 18.714,219.216 18.609,218.755 18.362 C 218.295 18.116,217.534 17.828,217.064 17.723 C 215.540 17.382,215.039 17.248,215.039 17.182 C 215.039 17.145,214.424 17.031,213.672 16.927 C 212.920 16.822,212.249 16.585,212.182 16.398 C 212.114 16.212,211.800 16.159,211.483 16.280 C 211.167 16.402,210.168 16.226,209.263 15.891 C 207.422 15.208,205.316 14.773,204.023 14.808 C 203.551 14.821,203.067 14.675,202.949 14.484 C 202.830 14.292,202.388 14.226,201.966 14.337 C 201.544 14.447,200.357 14.338,199.330 14.095 C 196.433 13.410,192.346 12.772,191.016 12.798 C 190.693 12.804,187.529 12.487,183.984 12.093 C 180.439 11.700,175.957 11.267,174.023 11.132 C 172.090 10.997,169.805 10.820,168.945 10.739 C 168.086 10.658,166.504 10.569,165.430 10.540 C 161.263 10.429,136.066 8.600,130.859 8.031 C 130.107 7.949,127.559 7.701,125.195 7.481 C 119.424 6.943,117.209 6.679,113.281 6.059 C 111.455 5.771,108.818 5.423,107.422 5.284 C 106.025 5.146,103.740 4.769,102.344 4.446 C 100.947 4.123,98.574 3.702,97.070 3.511 C 95.566 3.320,92.784 2.807,90.886 2.373 C 88.989 1.938,86.836 1.542,86.101 1.493 C 85.367 1.443,84.766 1.263,84.766 1.092 C 84.766 0.742,81.892 0.660,81.552 1.000 M203.585 89.199 C 203.945 89.216,204.140 89.391,204.019 89.588 C 203.897 89.784,204.011 89.874,204.271 89.787 C 204.531 89.701,205.563 90.381,206.563 91.299 C 207.563 92.217,208.517 92.969,208.683 92.969 C 208.849 92.969,208.984 93.238,208.984 93.567 C 208.984 93.896,209.248 94.266,209.570 94.390 C 209.893 94.514,210.156 94.847,210.156 95.131 C 210.156 95.414,210.590 95.987,211.120 96.404 C 211.649 96.821,211.972 97.273,211.836 97.409 C 211.700 97.545,211.794 97.656,212.044 97.656 C 212.295 97.656,212.479 97.788,212.454 97.949 C 212.349 98.612,212.527 99.192,212.988 99.694 C 213.752 100.525,214.453 101.885,214.453 102.534 C 214.453 102.859,214.623 103.125,214.831 103.125 C 215.040 103.125,215.117 103.366,215.004 103.661 C 214.891 103.955,215.043 104.440,215.341 104.738 C 215.639 105.036,215.802 105.523,215.703 105.820 C 215.584 106.179,215.692 106.255,216.026 106.048 C 216.397 105.819,216.471 105.960,216.307 106.586 C 216.185 107.053,216.289 107.652,216.539 107.917 C 216.788 108.182,217.050 108.734,217.121 109.143 C 217.192 109.553,217.519 110.299,217.848 110.801 C 218.176 111.302,218.348 111.966,218.229 112.276 C 218.110 112.586,218.181 112.896,218.387 112.965 C 218.593 113.034,218.849 113.777,218.957 114.617 C 219.064 115.458,219.324 116.352,219.534 116.605 C 219.743 116.857,219.790 117.189,219.637 117.342 C 219.484 117.495,219.584 117.760,219.859 117.930 C 220.134 118.100,220.393 118.881,220.434 119.665 C 220.474 120.449,220.658 121.091,220.843 121.092 C 221.027 121.093,221.070 121.373,220.939 121.715 C 220.808 122.057,220.828 122.540,220.984 122.789 C 221.390 123.439,221.546 124.255,221.504 125.516 C 221.482 126.175,221.628 126.520,221.867 126.372 C 222.235 126.145,222.328 126.515,222.456 128.721 C 222.481 129.156,222.642 129.739,222.813 130.016 C 222.985 130.294,223.040 130.606,222.936 130.710 C 222.832 130.813,222.915 131.549,223.121 132.344 C 223.326 133.139,223.475 134.375,223.451 135.091 C 223.428 135.806,223.566 136.295,223.757 136.177 C 223.949 136.058,224.023 136.395,223.921 136.926 C 223.814 137.486,223.920 137.891,224.173 137.891 C 224.413 137.891,224.596 138.462,224.580 139.160 C 224.565 139.858,224.644 140.869,224.756 141.406 C 225.205 143.556,225.476 145.555,225.436 146.426 C 225.412 146.931,225.515 147.541,225.664 147.782 C 225.813 148.023,225.885 148.904,225.825 149.740 C 225.745 150.848,225.843 151.180,226.188 150.967 C 226.534 150.753,226.617 151.048,226.498 152.068 C 226.408 152.834,226.474 153.375,226.643 153.271 C 226.909 153.106,227.008 154.634,226.991 158.594 C 226.989 159.131,227.092 159.834,227.221 160.156 C 227.350 160.479,227.490 161.445,227.534 162.305 C 227.781 167.222,228.209 170.904,228.558 171.120 C 228.778 171.256,228.926 172.316,228.886 173.476 C 228.847 174.637,228.941 176.641,229.094 177.930 C 229.247 179.219,229.354 181.812,229.333 183.691 C 229.311 185.571,229.426 187.111,229.588 187.112 C 229.750 187.113,229.933 189.876,229.995 193.250 C 230.062 196.906,230.270 199.486,230.509 199.634 C 230.757 199.788,230.863 201.532,230.787 204.202 C 230.719 206.578,230.812 208.429,230.993 208.317 C 231.174 208.205,231.255 217.372,231.173 228.689 C 231.064 243.786,230.903 249.341,230.570 249.547 C 230.273 249.731,230.074 251.551,229.999 254.793 C 229.935 257.524,229.757 259.760,229.604 259.762 C 229.451 259.764,229.327 260.864,229.329 262.207 C 229.331 263.550,229.228 265.352,229.099 266.211 C 228.970 267.070,228.882 268.433,228.902 269.238 C 228.922 270.044,228.782 270.703,228.592 270.703 C 228.204 270.703,227.240 276.859,227.549 277.360 C 227.658 277.536,227.571 277.789,227.356 277.922 C 226.972 278.159,226.911 278.608,226.918 281.152 C 226.920 281.851,226.777 282.422,226.601 282.422 C 226.425 282.422,226.369 282.887,226.478 283.456 C 226.615 284.171,226.537 284.405,226.229 284.215 C 225.933 284.032,225.765 284.343,225.732 285.133 C 225.670 286.658,225.638 286.813,225.264 287.402 C 225.093 287.671,225.055 288.054,225.179 288.254 C 225.302 288.454,225.263 288.705,225.092 288.810 C 224.920 288.916,224.736 289.581,224.682 290.287 C 224.628 290.993,224.434 291.666,224.250 291.782 C 223.810 292.058,223.060 294.805,223.346 295.091 C 223.468 295.213,223.344 295.313,223.070 295.313 C 222.788 295.313,222.670 295.567,222.798 295.898 C 222.921 296.221,222.871 296.484,222.686 296.484 C 222.501 296.484,222.245 296.757,222.117 297.091 C 221.972 297.469,222.044 297.598,222.309 297.434 C 222.555 297.282,222.518 297.562,222.222 298.097 C 221.940 298.607,221.746 299.155,221.792 299.316 C 221.838 299.478,221.689 299.609,221.461 299.609 C 221.234 299.609,221.156 299.785,221.289 300.000 C 221.422 300.215,221.334 300.391,221.094 300.391 C 220.854 300.391,220.766 300.566,220.898 300.781 C 221.031 300.996,220.943 301.172,220.703 301.172 C 220.463 301.172,220.375 301.348,220.508 301.563 C 220.641 301.777,220.574 301.953,220.361 301.953 C 220.147 301.953,219.750 302.568,219.478 303.320 C 219.206 304.072,218.843 304.688,218.672 304.688 C 218.500 304.688,218.359 305.019,218.359 305.424 C 218.359 305.829,217.914 306.452,217.370 306.808 C 216.826 307.165,216.485 307.624,216.612 307.830 C 216.739 308.035,216.701 308.210,216.527 308.219 C 216.353 308.228,215.596 308.778,214.844 309.442 C 214.092 310.106,213.740 310.511,214.063 310.340 C 214.409 310.157,214.515 310.176,214.323 310.387 C 214.144 310.582,213.880 310.750,213.737 310.760 C 213.096 310.802,210.547 311.902,210.547 312.136 C 210.547 312.279,209.668 312.396,208.594 312.396 C 207.520 312.396,206.641 312.276,206.641 312.130 C 206.641 311.798,203.829 310.377,203.389 310.486 C 203.212 310.530,203.145 310.430,203.241 310.264 C 203.337 310.097,203.060 309.609,202.624 309.180 C 202.189 308.750,201.975 308.645,202.149 308.947 C 202.362 309.318,202.317 309.404,202.007 309.213 C 201.756 309.058,201.643 308.779,201.758 308.593 C 201.872 308.408,201.656 308.025,201.276 307.742 C 200.896 307.458,200.532 306.978,200.467 306.673 C 200.261 305.719,198.382 302.734,197.987 302.734 C 197.780 302.734,197.707 302.577,197.826 302.385 C 198.052 302.020,197.183 299.651,196.616 299.089 C 196.436 298.910,196.274 298.646,196.255 298.503 C 196.237 298.359,196.114 297.979,195.982 297.656 C 195.573 296.659,194.780 293.571,194.853 293.262 C 194.891 293.101,194.717 292.969,194.466 292.969 C 194.215 292.969,194.114 292.865,194.241 292.738 C 194.368 292.611,194.225 291.809,193.924 290.955 C 193.623 290.101,193.393 289.282,193.414 289.135 C 193.435 288.988,193.418 288.779,193.377 288.672 C 193.335 288.564,193.225 288.037,193.132 287.500 C 193.038 286.963,192.776 286.063,192.548 285.499 C 192.320 284.936,192.083 283.969,192.021 283.351 C 191.959 282.733,191.806 281.963,191.679 281.641 C 191.553 281.318,191.361 280.439,191.252 279.688 C 191.143 278.936,190.924 277.705,190.765 276.953 C 190.607 276.201,190.466 275.103,190.453 274.512 C 190.440 273.921,190.277 273.438,190.091 273.438 C 189.905 273.438,189.837 272.998,189.939 272.461 C 190.042 271.924,189.961 271.484,189.760 271.484 C 189.559 271.484,189.433 271.001,189.480 270.410 C 189.527 269.819,189.467 269.072,189.347 268.750 C 189.226 268.428,189.133 267.900,189.140 267.578 C 189.159 266.665,188.702 263.312,188.225 260.856 C 187.986 259.630,187.885 258.268,187.999 257.829 C 188.114 257.390,188.035 257.031,187.824 257.031 C 187.613 257.031,187.488 256.367,187.547 255.556 C 187.605 254.744,187.527 253.876,187.373 253.627 C 187.219 253.377,187.122 252.679,187.157 252.075 C 187.213 251.104,187.076 249.491,186.520 244.531 C 185.752 237.689,185.510 234.834,185.598 233.624 C 185.654 232.844,185.569 231.992,185.408 231.731 C 185.247 231.471,185.106 230.245,185.096 229.008 C 185.064 225.301,184.761 218.603,184.075 206.445 C 183.918 203.652,183.789 198.599,183.789 195.215 C 183.789 191.831,183.657 189.063,183.496 189.063 C 183.184 189.063,183.076 143.617,183.387 143.306 C 183.488 143.205,183.675 140.671,183.803 137.675 C 184.041 132.131,184.084 131.480,184.586 125.977 C 184.743 124.258,184.844 122.357,184.811 121.753 C 184.777 121.149,184.879 120.446,185.036 120.191 C 185.194 119.936,185.274 119.261,185.214 118.691 C 185.154 118.122,185.276 117.550,185.485 117.421 C 185.693 117.292,185.777 116.852,185.670 116.444 C 185.509 115.827,185.903 113.360,186.613 110.547 C 186.695 110.225,186.860 109.258,186.981 108.398 C 187.101 107.539,187.312 106.748,187.448 106.641 C 187.584 106.533,187.756 105.830,187.829 105.078 C 187.903 104.326,188.106 103.535,188.281 103.320 C 188.455 103.105,188.898 101.875,189.265 100.586 C 189.632 99.297,190.306 97.627,190.764 96.875 C 191.222 96.123,191.554 95.376,191.501 95.215 C 191.449 95.054,191.582 94.922,191.797 94.922 C 192.012 94.922,192.188 94.739,192.188 94.515 C 192.188 94.291,192.533 93.737,192.955 93.284 C 193.378 92.831,193.628 92.306,193.512 92.119 C 193.396 91.931,193.534 91.826,193.819 91.885 C 194.103 91.944,194.292 91.772,194.238 91.504 C 194.185 91.235,194.272 91.055,194.434 91.102 C 194.595 91.150,195.212 90.865,195.804 90.469 C 197.676 89.219,199.701 88.654,201.367 88.919 C 202.227 89.056,203.224 89.181,203.585 89.199 " stroke="none" fill="#fcfcfc" fill-rule="evenodd"></path><path id="path1" d="M183.730 139.063 C 183.730 140.889,183.798 141.636,183.880 140.723 C 183.962 139.810,183.962 138.315,183.880 137.402 C 183.798 136.489,183.730 137.236,183.730 139.063 M183.344 148.828 C 183.344 150.869,183.410 151.704,183.490 150.684 C 183.571 149.663,183.571 147.993,183.490 146.973 C 183.410 145.952,183.344 146.787,183.344 148.828 M183.354 180.469 C 183.354 183.154,183.416 184.253,183.492 182.910 C 183.569 181.567,183.569 179.370,183.492 178.027 C 183.416 176.685,183.354 177.783,183.354 180.469 M183.748 195.117 C 183.748 198.125,183.810 199.304,183.884 197.737 C 183.958 196.170,183.958 193.709,183.883 192.268 C 183.808 190.827,183.747 192.109,183.748 195.117 " stroke="none" fill="#f5ecf6" fill-rule="evenodd"></path><path id="path2" d="M150.691 9.658 C 151.393 9.745,152.447 9.743,153.034 9.654 C 153.621 9.565,153.047 9.494,151.758 9.496 C 150.469 9.498,149.988 9.571,150.691 9.658 M156.938 10.042 C 157.424 10.135,158.127 10.132,158.501 10.034 C 158.874 9.936,158.477 9.860,157.617 9.864 C 156.758 9.868,156.452 9.948,156.938 10.042 M161.426 10.426 C 161.802 10.524,162.417 10.524,162.793 10.426 C 163.169 10.327,162.861 10.247,162.109 10.247 C 161.357 10.247,161.050 10.327,161.426 10.426 M182.910 11.988 C 183.286 12.086,183.901 12.086,184.277 11.988 C 184.653 11.890,184.346 11.809,183.594 11.809 C 182.842 11.809,182.534 11.890,182.910 11.988 M199.219 14.043 C 200.195 14.375,202.619 14.582,202.311 14.308 C 202.222 14.228,201.270 14.061,200.195 13.937 C 198.878 13.785,198.560 13.820,199.219 14.043 M105.169 151.563 C 105.169 152.314,105.249 152.622,105.347 152.246 C 105.446 151.870,105.446 151.255,105.347 150.879 C 105.249 150.503,105.169 150.811,105.169 151.563 M105.567 158.789 C 105.572 159.648,105.652 159.954,105.745 159.468 C 105.838 158.982,105.835 158.279,105.737 157.906 C 105.639 157.532,105.563 157.930,105.567 158.789 M105.950 166.797 C 105.950 167.549,106.030 167.856,106.129 167.480 C 106.227 167.104,106.227 166.489,106.129 166.113 C 106.030 165.737,105.950 166.045,105.950 166.797 M321.613 186.523 C 321.614 188.027,321.685 188.595,321.769 187.784 C 321.854 186.974,321.853 185.743,321.766 185.050 C 321.680 184.356,321.611 185.020,321.613 186.523 M183.294 187.891 C 183.294 188.643,183.374 188.950,183.472 188.574 C 183.571 188.198,183.571 187.583,183.472 187.207 C 183.374 186.831,183.294 187.139,183.294 187.891 M322.020 193.359 C 322.020 195.615,322.084 196.538,322.163 195.410 C 322.242 194.282,322.242 192.437,322.163 191.309 C 322.084 190.181,322.020 191.104,322.020 193.359 M322.016 218.750 C 322.016 220.791,322.082 221.626,322.162 220.605 C 322.243 219.585,322.243 217.915,322.162 216.895 C 322.082 215.874,322.016 216.709,322.016 218.750 M321.613 225.195 C 321.614 226.699,321.685 227.267,321.769 226.456 C 321.854 225.646,321.853 224.415,321.766 223.722 C 321.680 223.028,321.611 223.691,321.613 225.195 M106.341 243.359 C 106.341 244.111,106.421 244.419,106.519 244.043 C 106.618 243.667,106.618 243.052,106.519 242.676 C 106.421 242.300,106.341 242.607,106.341 243.359 M105.950 252.734 C 105.950 253.486,106.030 253.794,106.129 253.418 C 106.227 253.042,106.227 252.427,106.129 252.051 C 106.030 251.675,105.950 251.982,105.950 252.734 M105.567 261.523 C 105.572 262.383,105.652 262.688,105.745 262.202 C 105.838 261.717,105.835 261.013,105.737 260.640 C 105.639 260.267,105.563 260.664,105.567 261.523 M194.727 385.938 C 193.674 386.205,193.654 386.236,194.531 386.243 C 195.068 386.247,195.947 386.110,196.484 385.938 C 197.797 385.517,196.379 385.517,194.727 385.938 M161.235 390.511 C 161.721 390.604,162.424 390.601,162.798 390.503 C 163.171 390.405,162.773 390.329,161.914 390.333 C 161.055 390.337,160.749 390.417,161.235 390.511 M144.238 392.066 C 144.614 392.164,145.229 392.164,145.605 392.066 C 145.981 391.968,145.674 391.888,144.922 391.888 C 144.170 391.888,143.862 391.968,144.238 392.066 " stroke="none" fill="#fcf4fc" fill-rule="evenodd"></path><path id="path3" d="M183.377 164.063 C 183.377 170.615,183.430 173.296,183.495 170.020 C 183.561 166.743,183.561 161.382,183.495 158.105 C 183.430 154.829,183.377 157.510,183.377 164.063 M228.614 173.242 C 228.618 174.102,228.698 174.407,228.792 173.921 C 228.885 173.435,228.882 172.732,228.784 172.359 C 228.686 171.985,228.610 172.383,228.614 173.242 M230.613 203.906 C 230.613 206.162,230.678 207.085,230.757 205.957 C 230.836 204.829,230.836 202.983,230.757 201.855 C 230.678 200.728,230.613 201.650,230.613 203.906 M231.025 217.188 C 231.025 221.807,231.082 223.696,231.151 221.387 C 231.220 219.077,231.220 215.298,231.151 212.988 C 231.082 210.679,231.025 212.568,231.025 217.188 M231.024 234.961 C 231.023 239.258,231.080 241.069,231.150 238.986 C 231.220 236.902,231.221 233.387,231.151 231.173 C 231.081 228.960,231.024 230.664,231.024 234.961 M230.600 246.484 C 230.600 248.096,230.669 248.755,230.753 247.949 C 230.838 247.144,230.838 245.825,230.753 245.020 C 230.669 244.214,230.600 244.873,230.600 246.484 " stroke="none" fill="#f4e0f4" fill-rule="evenodd"></path><path id="path4" d="M185.653 233.984 C 185.653 234.951,185.729 235.347,185.823 234.863 C 185.916 234.380,185.916 233.589,185.823 233.105 C 185.729 232.622,185.653 233.018,185.653 233.984 M186.044 239.063 C 186.044 240.029,186.120 240.425,186.213 239.941 C 186.306 239.458,186.306 238.667,186.213 238.184 C 186.120 237.700,186.044 238.096,186.044 239.063 " stroke="none" fill="#f4f4f8" fill-rule="evenodd"></path></g></svg>